<svg xmlns="http://www.w3.org/2000/svg" viewBox="0 0 1200 900" fill="none">
  <defs>
    <linearGradient id="g1" x1="140" y1="120" x2="1040" y2="800">
      <stop stop-color="#FFF7ED"/>
      <stop offset="1" stop-color="#FFF1F2"/>
    </linearGradient>
    <linearGradient id="r1" x1="260" y1="250" x2="920" y2="620">
      <stop stop-color="#F97316"/>
      <stop offset="1" stop-color="#EF4444"/>
    </linearGradient>
    <filter id="shadow" x="-20%" y="-20%" width="140%" height="140%">
      <feDropShadow dx="0" dy="22" stdDeviation="26" flood-color="#9A3412" flood-opacity=".18"/>
    </filter>
  </defs>
  <rect width="1200" height="900" rx="56" fill="url(#g1)"/>
  <circle cx="600" cy="165" r="120" fill="#F97316" fill-opacity=".08"/>
  <circle cx="960" cy="170" r="170" fill="#EF4444" fill-opacity=".08"/>
  <g filter="url(#shadow)">
    <rect x="280" y="250" width="640" height="330" rx="42" fill="#FFF"/>
    <rect x="318" y="292" width="180" height="212" rx="28" fill="#FFF7ED"/>
    <rect x="522" y="292" width="276" height="126" rx="28" fill="url(#r1)"/>
    <rect x="522" y="434" width="132" height="70" rx="24" fill="#FFF7ED"/>
    <rect x="666" y="434" width="132" height="70" rx="24" fill="#FFF7ED"/>
    <rect x="348" y="330" width="110" height="12" rx="6" fill="#F97316"/>
    <rect x="348" y="356" width="140" height="12" rx="6" fill="#E7E5E4"/>
    <rect x="348" y="382" width="92" height="12" rx="6" fill="#E7E5E4"/>
    <circle cx="740" cy="356" r="28" fill="#FFF"/>
    <path d="M729 356l10 10 18-20" stroke="#16A34A" stroke-width="8" stroke-linecap="round" stroke-linejoin="round"/>
    <path d="M558 448h80" stroke="#FDBA74" stroke-width="14" stroke-linecap="round"/>
    <path d="M558 476h58" stroke="#FDBA74" stroke-width="14" stroke-linecap="round"/>
  </g>
  <g filter="url(#shadow)">
    <rect x="116" y="150" width="220" height="140" rx="28" fill="#FFF"/>
    <rect x="144" y="180" width="112" height="14" rx="7" fill="#EF4444"/>
    <rect x="144" y="210" width="152" height="14" rx="7" fill="#E7E5E4"/>
    <rect x="144" y="240" width="92" height="14" rx="7" fill="#E7E5E4"/>
  </g>
  <g filter="url(#shadow)">
    <rect x="860" y="150" width="220" height="140" rx="28" fill="#FFF"/>
    <rect x="888" y="180" width="112" height="14" rx="7" fill="#EF4444"/>
    <rect x="888" y="210" width="152" height="14" rx="7" fill="#E7E5E4"/>
    <rect x="888" y="240" width="92" height="14" rx="7" fill="#E7E5E4"/>
  </g>
  <g filter="url(#shadow)">
    <circle cx="600" cy="660" r="102" fill="#FFFFFF"/>
    <circle cx="600" cy="660" r="72" fill="#FFF7ED"/>
    <path d="M565 660h70" stroke="#F97316" stroke-width="16" stroke-linecap="round"/>
    <path d="M600 625v70" stroke="#F97316" stroke-width="16" stroke-linecap="round"/>
  </g>
</svg>